# xmcd
# 
# Track frame offsets:
#     150
#     11947
#     26073
#     39466
#     52522
#     64580
#     78385
#     90117
#     101102
#     116539
#     125664
#     141864
#     163566
#     178196
#     190972
#     204255
#     215827
#     230548
# 
# Disc length: 3261
# 
# Revision: 2
# Processed by: cddbd v1.5.2PL0 Copyright (c) Steve Scherf et al.
# Submitted via: fre:ac v1.0.31
# 
DISCID=f40cbb12
DTITLE=Country - Boots, Buckles and Spurs Disc 1
DYEAR=2008
DGENRE=Country
TTITLE0=Back in the Sadle Again
TTITLE1=I Want To Be a Cowboy's Sweetheart
TTITLE2=Patent Leather Boots
TTITLE3=Dusty Skies
TTITLE4=Tumbling Tumbleweeds
TTITLE5=The Cattle Call
TTITLE6=Stampede
TTITLE7=Rodeo Hand
TTITLE8=Strawberry Roan
TTITLE9=Ride, Ride, Ride
TTITLE10=Ride Em' Cowboy
TTITLE11=Wildfire
TTITLE12=Let's All Help the Cowboy (Sing the Blues)
TTITLE13=Rita Ballou
TTITLE14=Bandy the Rodeo Clown
TTITLE15=Mammas Don't Let Your Babies Grow Up To Be Cowboys
TTITLE16=My Cowboy's Last Ride
TTITLE17=Bull Rider
EXTD=
EXTT0=
EXTT1=
EXTT2=
EXTT3=
EXTT4=
EXTT5=
EXTT6=
EXTT7=
EXTT8=
EXTT9=
EXTT10=
EXTT11=
EXTT12=
EXTT13=
EXTT14=
EXTT15=
EXTT16=
EXTT17=
PLAYORDER=
